<svg width="100" height="32" viewBox="0 0 100 32" fill="none" xmlns="http://www.w3.org/2000/svg">
<g clip-path="url(#clip0_218_316)">
<path d="M91.6854 15.5477H88.2023C85.9551 15.5477 84.7191 17.2331 84.7191 20.1545V30.6039H77.9775V15.5477H75.1685C72.9214 15.5477 71.6854 17.2331 71.6854 20.1545V30.6039H64.9438V9.92974H71.6854V13.0758C72.809 10.6039 74.2697 9.92974 76.5169 9.92974H84.7191V13.0758C85.8427 10.6039 87.3034 9.92974 89.5506 9.92974H91.7978L91.6854 15.5477ZM63.3708 21.8399H49.4382C49.7753 24.1994 51.236 25.4354 53.5955 25.4354C55.3933 25.4354 56.6292 24.6488 57.0787 23.4129L63.0337 25.0983C61.573 28.6938 57.9775 30.8286 53.5955 30.8286C46.2921 30.8286 42.9214 25.0983 42.9214 20.1545C42.9214 15.323 45.8427 9.59266 53.1461 9.59266C60.8989 9.59266 63.4832 15.4354 63.4832 19.8174C63.4832 20.8286 63.4832 21.3904 63.3708 21.8399ZM56.9663 17.9073C56.8539 16.1095 55.5056 14.5365 53.2584 14.5365C51.1236 14.5365 49.8876 15.4354 49.4382 17.9073H56.9663ZM31.236 30.6039H37.0787L44.4944 10.0421H37.7528L34.1573 22.0646L30.5618 9.92974H23.8202L31.236 30.6039ZM3.82023 30.6039H10.4494V15.5477H16.8539V30.6039H23.4831V9.92974H10.4494V8.69378C10.4494 7.34547 11.4607 6.44659 12.9213 6.44659H16.8539V0.828613H11.9101C7.07865 0.828613 3.82023 3.86232 3.82023 8.24435V9.92974H0V15.5477H3.82023V30.6039Z" fill="#404145"/>
<path d="M95.8427 31.1657C98.0899 31.1657 100 29.2556 100 27.0084C100 24.7612 98.0899 22.8511 95.8427 22.8511C93.5955 22.8511 91.6854 24.7612 91.6854 27.0084C91.6854 29.2556 93.5955 31.1657 95.8427 31.1657Z" fill="#1DBF73"/>
</g>
<defs>
<clipPath id="clip0_218_316">
<rect width="100" height="30.3371" fill="white" transform="translate(0 0.828613)"/>
</clipPath>
</defs>
</svg>
