<svg width="100" height="28" viewBox="0 0 100 28" fill="none" xmlns="http://www.w3.org/2000/svg">
<path d="M19.2766 12.0072H10.8664C10.7621 12.0073 10.6622 12.0488 10.5884 12.1226C10.5147 12.1963 10.4733 12.2963 10.4732 12.4006V16.5125C10.4732 16.7295 10.6494 16.9061 10.8662 16.9061H14.1473V22.0148C14.1473 22.0148 13.4105 22.266 11.3738 22.266C8.9709 22.266 5.61406 21.3879 5.61406 14.0066C5.61406 6.62383 9.10957 5.65254 12.391 5.65254C15.2314 5.65254 16.4553 6.15254 17.2338 6.39355C17.4785 6.46855 17.7049 6.225 17.7049 6.00781L18.643 2.03477C18.643 1.9332 18.6086 1.81094 18.4928 1.72793C18.1766 1.50234 16.2475 0.422852 11.3736 0.422852C5.75938 0.422852 0 2.81152 0 14.2945C0 25.7779 6.59375 27.4891 12.1504 27.4891C16.751 27.4891 19.5418 25.523 19.5418 25.523C19.657 25.4596 19.6693 25.2988 19.6693 25.225V12.4006C19.6693 12.1838 19.4934 12.0072 19.2766 12.0072ZM62.5969 1.86016C62.5969 1.64141 62.4234 1.46484 62.2064 1.46484H57.4709C57.4192 1.46505 57.368 1.47544 57.3203 1.49541C57.2726 1.51539 57.2294 1.54457 57.1929 1.58127C57.1565 1.61798 57.1277 1.6615 57.1081 1.70936C57.0885 1.75721 57.0785 1.80845 57.0787 1.86016L57.0799 11.0117H49.6986V1.86035C49.6986 1.6416 49.5244 1.46504 49.3078 1.46504L44.5723 1.46504C44.468 1.46561 44.3682 1.50757 44.2948 1.5817C44.2215 1.65583 44.1805 1.75606 44.1811 1.86035V26.64C44.1811 26.8588 44.3568 27.0365 44.5723 27.0365H49.3076C49.5242 27.0365 49.6982 26.8588 49.6982 26.64V16.0408H57.0797L57.0668 26.6398C57.0668 26.8586 57.2426 27.0363 57.459 27.0363H62.2059C62.4227 27.0363 62.5961 26.8586 62.5965 26.6398V1.86035L62.5969 1.86016ZM28.1973 5.17324C28.1973 3.46816 26.8301 2.09004 25.1436 2.09004C23.4586 2.09004 22.0904 3.46797 22.0904 5.17324C22.0904 6.87637 23.4586 8.2582 25.1436 8.2582C26.8301 8.2582 28.1973 6.87637 28.1973 5.17324ZM27.8215 21.4256V9.9873C27.8218 9.88303 27.7807 9.78289 27.7073 9.70888C27.6338 9.63487 27.534 9.59304 27.4297 9.59258H22.7092C22.4926 9.59258 22.299 9.81602 22.299 10.0332V26.4209C22.299 26.9025 22.599 27.0457 22.9875 27.0457H27.2404C27.7072 27.0457 27.8215 26.8166 27.8215 26.4131V21.4256ZM80.6957 9.59277H75.9965C75.7809 9.59277 75.6055 9.77031 75.6055 9.98887V22.1393C75.6055 22.1393 74.4117 23.0127 72.7172 23.0127C71.0229 23.0127 70.5732 22.2437 70.5732 20.5848V9.98906C70.5732 9.77031 70.398 9.59258 70.1824 9.59258H65.4131C65.1979 9.59258 65.0215 9.77031 65.0215 9.98906V21.3871C65.0215 26.3148 67.7682 27.5205 71.5465 27.5205C74.6461 27.5205 77.1451 25.8082 77.1451 25.8082C77.1451 25.8082 77.2643 26.7105 77.318 26.8176C77.3719 26.9244 77.5121 27.032 77.6637 27.032L80.6979 27.0188C80.9131 27.0188 81.0895 26.8408 81.0895 26.6232L81.0879 9.98887C81.0883 9.88437 81.0472 9.78397 80.9737 9.70971C80.9002 9.63545 80.8002 9.59339 80.6957 9.59277ZM91.5228 23.0221C89.893 22.9725 88.7873 22.2328 88.7873 22.2328V14.3854C88.7873 14.3854 89.8781 13.7168 91.2162 13.5973C92.9084 13.4457 94.5391 13.9568 94.5391 17.9937C94.5391 22.2506 93.8031 23.0908 91.5228 23.0221ZM93.3764 9.06055C90.7074 9.06055 88.892 10.2514 88.892 10.2514V1.86016C88.8924 1.80854 88.8825 1.75735 88.8631 1.70953C88.8436 1.66172 88.815 1.6182 88.7787 1.58148C88.7424 1.54476 88.6992 1.51556 88.6516 1.49555C88.6041 1.47553 88.553 1.4651 88.5014 1.46484H83.7523C83.7007 1.46507 83.6496 1.47548 83.6019 1.49548C83.5543 1.51548 83.5111 1.54467 83.4747 1.58138C83.4384 1.61809 83.4096 1.66161 83.3901 1.70944C83.3706 1.75728 83.3607 1.80849 83.3609 1.86016V26.6398C83.3609 26.8586 83.5363 27.0363 83.7529 27.0363H87.0479C87.1963 27.0363 87.3086 26.9602 87.3916 26.826C87.4734 26.6928 87.5916 25.6834 87.5916 25.6834C87.5916 25.6834 89.5334 27.5236 93.2094 27.5236C97.525 27.5236 100 25.3346 100 17.6965C100 10.0584 96.0473 9.06055 93.3764 9.06055ZM41.451 9.5498H37.8988L37.8934 4.85703C37.8934 4.67949 37.802 4.59063 37.5965 4.59063H32.7559C32.5676 4.59063 32.4666 4.67344 32.4666 4.8543V9.70391C32.4666 9.70391 30.0408 10.2895 29.8768 10.3367C29.7949 10.3605 29.7231 10.4101 29.6719 10.4783C29.6208 10.5464 29.5931 10.6293 29.5932 10.7145V13.7619C29.5932 13.9811 29.7682 14.1578 29.9848 14.1578H32.4666V21.4891C32.4666 26.9344 36.2861 27.4693 38.8637 27.4693C40.0414 27.4693 41.4502 27.091 41.6828 27.0053C41.8234 26.9535 41.9051 26.808 41.9051 26.6498L41.909 23.2975C41.909 23.0789 41.7244 22.902 41.5164 22.902C41.3094 22.902 40.7801 22.9861 40.2348 22.9861C38.49 22.9861 37.8988 22.1748 37.8988 21.1248L37.8986 14.158H41.451C41.5027 14.1578 41.5539 14.1474 41.6017 14.1274C41.6494 14.1073 41.6927 14.0781 41.7291 14.0413C41.7655 14.0045 41.7943 13.9609 41.8138 13.9129C41.8333 13.865 41.8431 13.8137 41.8428 13.7619V9.94492C41.8428 9.72617 41.6676 9.5498 41.451 9.5498Z" fill="#11110F"/>
</svg>
