<svg width="100" height="26" viewBox="0 0 100 26" fill="none" xmlns="http://www.w3.org/2000/svg">
<path d="M39.4643 15.1398L44.9822 21.9256H40.625L35.7143 15.6936V21.9256H32.1428V4.06855H35.7143V14.5686L40.25 9.42559H44.8035L39.4643 15.1398ZM25.1785 9.06855C24.3965 9.08026 23.6291 9.28132 22.9418 9.6545C22.2545 10.0277 21.6679 10.5619 21.2322 11.2113V9.42559H17.8572V21.9256H21.4285V16.0863C21.3816 15.6625 21.4225 15.2335 21.5485 14.8262C21.6745 14.4188 21.8831 14.0417 22.1611 13.7184C22.4392 13.3952 22.7808 13.1326 23.1647 12.947C23.5487 12.7614 23.9667 12.6569 24.3928 12.6398C26.4643 12.6398 26.7857 14.6756 26.7857 16.0863V21.9256H30.3572V15.3006C30.3572 11.3721 29.0535 9.06855 25.25 9.06855H25.1785ZM57.1428 15.9613C57.1564 16.223 57.1564 16.4854 57.1428 16.7471H47.7678V16.8721C47.92 17.6167 48.3325 18.2828 48.9314 18.7508C49.5303 19.2187 50.2764 19.458 51.0357 19.4256C51.6381 19.4518 52.2396 19.3562 52.8042 19.1445C53.3688 18.9328 53.8848 18.6094 54.3215 18.1936L56.6965 19.9793C55.9437 20.7474 55.0384 21.3493 54.0387 21.7461C53.0391 22.1428 51.9674 22.3257 50.8928 22.2828C50.0028 22.3391 49.1112 22.2037 48.278 21.8858C47.4449 21.5679 46.6896 21.0749 46.0633 20.4401C45.437 19.8053 44.9543 19.0435 44.6476 18.2062C44.3409 17.3689 44.2175 16.4755 44.2857 15.5863C44.2675 14.7086 44.4301 13.8365 44.7637 13.0244C45.0972 12.2124 45.5944 11.4777 46.2244 10.8662C46.8543 10.2547 47.6034 9.77949 48.4251 9.47022C49.2467 9.16094 50.1232 9.02422 51 9.06855C54.3572 9.06855 57.1428 11.4436 57.1428 15.9613ZM53.8215 14.4256C53.8084 14.0719 53.7233 13.7245 53.5716 13.4048C53.4199 13.085 53.2047 12.7994 52.939 12.5655C52.6734 12.3316 52.3629 12.1542 52.0265 12.0442C51.69 11.9342 51.3347 11.8938 50.9822 11.9256C49.4119 11.7559 47.9898 12.8619 47.7678 14.4256H53.8215ZM3.57148 4.06855H0V21.9256H10.7143V18.3545H3.57148V4.06855ZM67.8572 4.06855H71.4285V21.9256H68.0535V20.6756C67.625 21.2036 67.0788 21.624 66.4586 21.903C65.8385 22.1821 65.1616 22.3122 64.4822 22.2828C63.6522 22.2615 62.8353 22.0707 62.0817 21.722C61.3281 21.3734 60.6538 20.8743 60.1002 20.2555C59.5466 19.6366 59.1254 18.9111 58.8625 18.1235C58.5996 17.3359 58.5006 16.5029 58.5715 15.6756C58.4872 14.8471 58.5762 14.0102 58.833 13.218C59.0898 12.4259 59.5086 11.6958 60.0629 11.0744C60.6172 10.4529 61.2947 9.95363 62.0525 9.6083C62.8102 9.26297 63.6316 9.07916 64.4643 9.06855C65.0845 9.04138 65.7039 9.13791 66.2864 9.35252C66.8689 9.56712 67.4029 9.89551 67.8572 10.3186V4.06855ZM68.125 15.6756C68.1812 15.2632 68.1482 14.8436 68.0285 14.4451C67.9087 14.0466 67.7049 13.6783 67.4307 13.3652C67.1566 13.0522 66.8185 12.8015 66.4392 12.6302C66.06 12.4588 65.6484 12.3708 65.2322 12.3721C63.5238 12.4961 62.2293 13.9652 62.3215 15.6756C62.2293 17.3859 63.5238 18.8553 65.2322 18.9793C65.6484 18.9805 66.06 18.8925 66.4393 18.7212C66.8185 18.5498 67.1566 18.2992 67.4308 17.9861C67.705 17.673 67.9088 17.3047 68.0285 16.9061C68.1483 16.5076 68.1812 16.0879 68.125 15.6756ZM14.2857 3.71133C13.7114 3.71947 13.1616 3.94522 12.7473 4.34301C12.333 4.7408 12.085 5.28099 12.0535 5.85449C12.0535 7.08711 13.0529 8.08652 14.2857 8.08652C15.5186 8.08652 16.5176 7.08691 16.5176 5.85449C16.486 5.28106 16.2381 4.74095 15.8238 4.3432C15.4095 3.94546 14.8598 3.71971 14.2855 3.71152L14.2857 3.71133ZM12.5 21.9256H16.0715V9.42559H12.5V21.9256ZM100 2.28281V23.7113C100 24.1849 99.8119 24.6391 99.477 24.974C99.1421 25.3089 98.6879 25.4971 98.2143 25.4971H76.7857C76.3121 25.4971 75.8579 25.3089 75.523 24.974C75.1881 24.6391 75 24.1849 75 23.7113V2.28281C75 1.8092 75.1881 1.35499 75.523 1.0201C75.8579 0.68521 76.3121 0.49707 76.7857 0.49707L98.2143 0.49707C98.6879 0.49707 99.1421 0.68521 99.477 1.0201C99.8119 1.35499 100 1.8092 100 2.28281ZM82.1428 9.42559H78.5715V21.9256H82.1428V9.42559ZM82.5893 5.8543C82.5893 4.62148 81.5898 3.62207 80.3572 3.62207C79.1244 3.62207 78.125 4.62148 78.125 5.8543C78.125 7.08691 79.1244 8.08633 80.3572 8.08633C81.5898 8.08633 82.5893 7.08691 82.5893 5.8543ZM96.4285 15.3006C96.4285 11.3721 95.125 9.06855 91.3215 9.06855C90.5274 9.06862 89.7454 9.26412 89.0447 9.63782C88.344 10.0115 87.746 10.5519 87.3035 11.2113V9.42559H83.9285V21.9256H87.5V16.0863C87.4531 15.6625 87.4939 15.2335 87.62 14.8262C87.746 14.4188 87.9546 14.0417 88.2326 13.7184C88.5107 13.3952 88.8523 13.1326 89.2362 12.947C89.6202 12.7614 90.0382 12.6569 90.4643 12.6398C92.5357 12.6398 92.8572 14.6756 92.8572 16.0863V21.9256H96.4285V15.3006Z" fill="#0A66C2"/>
</svg>
